<?xml version="1.0" encoding="UTF-8" standalone="no"?>
<svg
   width="152"
   height="89"
   fill="none"
   version="1.1"
   id="svg13"
   sodipodi:docname="android.svg"
   inkscape:version="1.2.2 (732a01da63, 2022-12-09)"
   xmlns:inkscape="http://www.inkscape.org/namespaces/inkscape"
   xmlns:sodipodi="http://sodipodi.sourceforge.net/DTD/sodipodi-0.dtd"
   xmlns="http://www.w3.org/2000/svg"
   xmlns:svg="http://www.w3.org/2000/svg">
  <sodipodi:namedview
     id="namedview15"
     pagecolor="#ffffff"
     bordercolor="#000000"
     borderopacity="0.25"
     inkscape:showpageshadow="2"
     inkscape:pageopacity="0.0"
     inkscape:pagecheckerboard="0"
     inkscape:deskcolor="#d1d1d1"
     showgrid="false"
     inkscape:zoom="8.9934211"
     inkscape:cx="76"
     inkscape:cy="44.532553"
     inkscape:window-width="2560"
     inkscape:window-height="1351"
     inkscape:window-x="-9"
     inkscape:window-y="-9"
     inkscape:window-maximized="1"
     inkscape:current-layer="svg13" />
  <g
     clip-path="url(#a)"
     id="g6"
     transform="translate(0.0465,0.445)">
    <path
       fill="#34a853"
       d="m 151.025,85.224 q -0.071,-0.464 -0.147,-0.92 a 75.665,75.665 0 0 0 -7.546,-22.597 76.5,76.5 0 0 0 -5.511,-8.995 76,76 0 0 0 -8.322,-9.808 76.034,76.034 0 0 0 -13.398,-10.626 q 0.042,-0.074 0.085,-0.148 2.286,-3.948 4.572,-7.897 l 4.47,-7.712 a 3946,3946 0 0 0 3.208,-5.54 q 0.38,-0.658 0.604,-1.355 a 6.97,6.97 0 0 0 -0.652,-5.702 6.9,6.9 0 0 0 -2.406,-2.398 7,7 0 0 0 -2.954,-0.95 7,7 0 0 0 -2.376,0.206 6.93,6.93 0 0 0 -4.22,3.227 q -1.606,2.77 -3.208,5.54 l -4.47,7.712 c -1.523,2.634 -3.05,5.263 -4.573,7.897 q -0.25,0.43 -0.5,0.865 c -0.232,-0.092 -0.46,-0.184 -0.692,-0.272 -8.398,-3.205 -17.511,-4.958 -27.036,-4.958 q -0.39,-10e-4 -0.78,0.004 A 75.7,75.7 0 0 0 50.977,25 q -1.317,0.46 -2.608,0.968 -0.234,-0.404 -0.467,-0.806 -2.286,-3.95 -4.573,-7.897 l -4.47,-7.713 a 4385,4385 0 0 1 -3.208,-5.54 6.93,6.93 0 0 0 -6.596,-3.432 6.9,6.9 0 0 0 -2.954,0.95 6.92,6.92 0 0 0 -3.157,4.185 6.96,6.96 0 0 0 0.703,5.27 l 3.208,5.54 4.47,7.713 c 1.523,2.634 3.05,5.263 4.573,7.897 0.01,0.022 0.025,0.044 0.036,0.066 A 76.3,76.3 0 0 0 22.407,42.912 76.5,76.5 0 0 0 14.085,52.72 75.4,75.4 0 0 0 8.575,61.715 75.7,75.7 0 0 0 1.029,84.312 76.038,76.038 0 0 0 0.448,88.559 h 151 a 77,77 0 0 0 -0.434,-3.327 z"
       id="path2" />
    <path
       fill="#202124"
       d="m 115.225,67.663 c 3.022,-2.012 3.461,-6.668 0.981,-10.4 -2.48,-3.73 -6.939,-5.123 -9.96,-3.11 -3.021,2.012 -3.46,6.668 -0.98,10.4 2.479,3.73 6.938,5.123 9.959,3.11 M 46.762,64.564 c 2.48,-3.73 2.04,-8.387 -0.98,-10.4 -3.022,-2.012 -7.481,-0.619 -9.96,3.112 -2.479,3.731 -2.041,8.387 0.98,10.4 3.021,2.013 7.48,0.62 9.96,-3.112"
       id="path4" />
  </g>
  <defs
     id="defs11">
    <clipPath
       id="a">
      <path
         fill="#fff"
         d="M.459.555h151v88h-151z"
         id="path8" />
    </clipPath>
  </defs>
</svg>
